HIERARCHY
ROOT Hips
{
	OFFSET 0.000000 0.000000 0.000000
	CHANNELS 6 Xposition Yposition Zposition Yrotation Xrotation Zrotation
	JOINT Chest
	{
		OFFSET 0.000000 -0.009281 11.569106
		CHANNELS 3 Yrotation Xrotation Zrotation
		JOINT Chest2
		{
			OFFSET -0.000000 0.016865 9.269641
			CHANNELS 3 Yrotation Xrotation Zrotation
			JOINT Chest3
			{
				OFFSET -0.000000 0.000001 8.374491
				CHANNELS 3 Yrotation Xrotation Zrotation
				JOINT Chest4
				{
					OFFSET -0.000000 0.000001 8.374493
					CHANNELS 3 Yrotation Xrotation Zrotation
					JOINT Neck
					{
						OFFSET -0.000000 0.000002 12.152554
						CHANNELS 3 Yrotation Xrotation Zrotation
						JOINT Head
						{
							OFFSET -0.000000 0.040101 7.802319
							CHANNELS 3 Yrotation Xrotation Zrotation
							End Site
							{
								OFFSET -0.000000 0.020947 14.853096
							}
						}
					}
					JOINT RightCollar
					{
						OFFSET 2.894404 0.000001 6.791374
						CHANNELS 3 Yrotation Xrotation Zrotation
						JOINT RightShoulder
						{
							OFFSET 13.574684 0.000001 0.000000
							CHANNELS 3 Yrotation Xrotation Zrotation
							JOINT RightElbow
							{
								OFFSET 23.923903 0.000002 0.000000
								CHANNELS 3 Yrotation Xrotation Zrotation
								JOINT RightWrist
								{
									OFFSET 19.846718 0.012767 0.000000
									CHANNELS 3 Yrotation Xrotation Zrotation
									End Site
									{
										OFFSET 14.973145 0.000001 0.000000
									}
								}
							}
						}
					}
					JOINT LeftCollar
					{
						OFFSET -2.894404 0.000001 6.791374
						CHANNELS 3 Yrotation Xrotation Zrotation
						JOINT LeftShoulder
						{
							OFFSET -13.574684 -0.000001 0.000000
							CHANNELS 3 Yrotation Xrotation Zrotation
							JOINT LeftElbow
							{
								OFFSET -23.923903 -0.000002 0.000000
								CHANNELS 3 Yrotation Xrotation Zrotation
								JOINT LeftWrist
								{
									OFFSET -19.846718 0.012763 0.000000
									CHANNELS 3 Yrotation Xrotation Zrotation
									End Site
									{
										OFFSET -14.973145 -0.000001 0.000000
									}
								}
							}
						}
					}
				}
			}
		}
	}
	JOINT RightHip
	{
		OFFSET 9.469263 0.004643 0.045487
		CHANNELS 3 Yrotation Xrotation Zrotation
		JOINT RightKnee
		{
			OFFSET 0.000000 0.002661 -40.478676
			CHANNELS 3 Yrotation Xrotation Zrotation
			JOINT RightAnkle
			{
				OFFSET 0.000000 0.049106 -35.224068
				CHANNELS 3 Yrotation Xrotation Zrotation
				JOINT RightToe
				{
					OFFSET -0.000001 12.539529 -6.151390
					CHANNELS 3 Yrotation Xrotation Zrotation
					End Site
					{
						OFFSET -0.000001 5.044994 -1.291870
					}
				}
			}
		}
	}
	JOINT LeftHip
	{
		OFFSET -9.469263 0.004641 0.045487
		CHANNELS 3 Yrotation Xrotation Zrotation
		JOINT LeftKnee
		{
			OFFSET 0.000000 0.002661 -40.478676
			CHANNELS 3 Yrotation Xrotation Zrotation
			JOINT LeftAnkle
			{
				OFFSET 0.000000 0.049106 -35.224068
				CHANNELS 3 Yrotation Xrotation Zrotation
				JOINT LeftToe
				{
					OFFSET -0.000001 12.539529 -6.151390
					CHANNELS 3 Yrotation Xrotation Zrotation
					End Site
					{
						OFFSET -0.000001 5.044994 -1.291870
					}
				}
			}
		}
	}
}
MOTION
Frames: 16
Frame Time: 0.016667
9.930189 6.877047 83.106354 -5.720190 -1.033949 -103.208434 -0.772351 -3.795875 1.422083 -0.325307 -1.687612 0.609785 -0.325306 -1.687612 0.609786 -0.242278 -1.266035 0.456409 5.167042 -24.448121 -13.941470 5.859123 -9.303367 -23.716674 9.743394 3.619127 -6.594562 63.518608 46.520791 28.683741 40.572700 38.100544 45.773189 -3.132452 45.720258 10.158658 -9.217282 -4.213279 -4.984532 -50.947809 24.964102 -19.169276 -29.151835 7.744047 -30.352353 -37.751162 27.247662 -0.433707 -1.141404 -6.282998 -3.992720 2.510900 -4.552465 -10.886542 -1.234978 4.849519 1.496243 0.133126 0.008387 -0.008293 -0.926797 -7.005409 0.528019 0.851559 -2.150912 -1.362970 -1.020645 3.450694 -0.299341 -0.016203 -0.025745 0.013627 
9.936861 6.894105 83.107735 -5.712963 -1.028917 -103.171647 -0.776001 -3.831620 1.398650 -0.328538 -1.702913 0.597629 -0.328539 -1.702913 0.597628 -0.244720 -1.277509 0.447274 5.222161 -24.426804 -13.966392 5.948050 -9.257611 -23.747594 9.742505 3.739511 -6.646460 63.102294 46.404042 28.373149 40.267295 37.561433 45.747217 -3.022393 45.251735 10.125818 -9.210148 -4.171377 -5.022217 -50.974245 25.390431 -19.283700 -29.468711 7.982200 -30.290957 -37.645537 27.818795 -0.942653 -1.156934 -6.255649 -3.985571 2.521794 -4.603737 -10.910486 -1.253790 4.870204 1.478434 0.129754 0.015906 -0.008074 -0.929271 -6.991799 0.510806 0.833093 -2.159300 -1.361152 -1.007424 3.444780 -0.318723 -0.004666 -0.021653 0.014284 
9.945495 6.906011 83.109711 -5.680633 -1.023008 -103.140016 -0.773249 -3.856651 1.378383 -0.328183 -1.713320 0.587547 -0.328184 -1.713320 0.587547 -0.244472 -1.285307 0.439706 5.256326 -24.401117 -13.941074 6.010710 -9.203648 -23.693638 9.719841 3.861683 -6.715965 62.707823 46.243215 28.180797 40.339435 37.135735 45.980608 -2.760221 44.905553 10.254142 -9.156096 -4.081443 -5.099087 -50.862950 25.571024 -19.355317 -29.630522 8.375502 -30.476010 -37.423979 28.231989 -1.380027 -1.159063 -6.229019 -3.976121 2.522311 -4.604505 -10.945113 -1.258817 4.865136 1.462793 0.115728 0.023215 -0.007570 -0.928546 -6.966149 0.499494 0.826332 -2.147183 -1.363713 -1.005920 3.432622 -0.336776 0.005431 -0.018918 0.014641 
9.954077 6.913990 83.111160 -5.628157 -1.019563 -103.127578 -0.764956 -3.875603 1.370539 -0.324196 -1.721599 0.584037 -0.324196 -1.721599 0.584036 -0.241484 -1.291510 0.437083 5.278818 -24.375311 -13.872355 6.062698 -9.148424 -23.564697 9.671351 3.973210 -6.777150 62.441835 46.117837 28.226549 40.548337 36.849752 46.293537 -2.546247 44.690447 10.424026 -9.055101 -3.970705 -5.200253 -50.621271 25.583532 -19.426742 -29.674641 8.893028 -30.819497 -37.163964 28.717127 -1.776878 -1.150064 -6.203872 -3.960328 2.511578 -4.557077 -10.979201 -1.246684 4.833763 1.468422 0.091926 0.028122 -0.007334 -0.922458 -6.934386 0.504762 0.823693 -2.113210 -1.402200 -1.006783 3.414445 -0.321423 0.013052 -0.018040 0.014586 
9.964890 6.920480 83.111870 -5.556609 -1.016310 -103.142393 -0.756708 -3.887785 1.380906 -0.319078 -1.726558 0.589863 -0.319078 -1.726558 0.589864 -0.237624 -1.295229 0.441463 5.293017 -24.353021 -13.763234 6.109922 -9.098444 -23.365264 9.628549 4.111629 -6.808295 62.263731 46.013687 28.455642 40.571474 36.597448 46.518462 -2.589239 44.516052 10.667075 -8.932096 -3.805703 -5.305420 -50.286701 25.622843 -19.495303 -29.773884 9.480463 -31.212571 -36.857934 29.191399 -2.145573 -1.135508 -6.173804 -3.941585 2.493012 -4.478133 -11.012029 -1.218507 4.787425 1.493557 0.061130 0.029618 -0.009172 -0.913252 -6.893146 0.523248 0.819139 -2.070522 -1.439097 -1.007658 3.396326 -0.299728 0.019362 -0.016736 0.014966 
9.975724 6.925354 83.112045 -5.464401 -1.012829 -103.183900 -0.749056 -3.877750 1.412776 -0.313944 -1.722193 0.605760 -0.313944 -1.722193 0.605759 -0.233733 -1.291959 0.453401 5.297456 -24.336049 -13.615318 6.149720 -9.057402 -23.098621 9.587566 4.243278 -6.838268 62.147037 45.895688 28.772438 40.378593 36.253169 46.660362 -3.010052 44.370418 11.093390 -8.822873 -3.600041 -5.417821 -49.943542 25.857141 -19.576019 -29.932064 10.031121 -31.553483 -36.551184 29.654018 -2.572436 -1.118393 -6.130233 -3.912975 2.469768 -4.377919 -11.064136 -1.178553 4.728119 1.570477 0.029467 0.029734 -0.010341 -0.903383 -6.842370 0.554781 0.816824 -2.010085 -1.451414 -1.010633 3.369845 -0.285027 0.023756 -0.014731 0.015248 
9.988914 6.929824 83.112450 -5.362795 -1.008877 -103.248794 -0.742129 -3.856945 1.459882 -0.309319 -1.713019 0.628986 -0.309319 -1.713019 0.628987 -0.230209 -1.285085 0.470838 5.291815 -24.311459 -13.430552 6.179285 -9.001774 -22.768376 9.557786 4.349541 -6.849586 62.059140 45.712120 29.139479 40.149706 35.898159 46.823231 -3.881117 44.273109 11.651659 -8.743153 -3.359705 -5.548029 -49.694076 26.320858 -19.685324 -30.014867 10.507496 -31.824553 -36.372950 30.230185 -3.163028 -1.091207 -6.085933 -3.880741 2.426935 -4.257475 -11.119247 -1.123428 4.658368 1.660651 -0.002075 0.028013 -0.012078 -0.888467 -6.793214 0.596076 0.802411 -1.935525 -1.444433 -1.010253 3.337104 -0.277909 0.028737 -0.010811 0.015725 
10.006472 6.930358 83.113503 -5.259479 -1.004905 -103.334212 -0.737368 -3.824996 1.513884 -0.306477 -1.698900 0.656060 -0.306477 -1.698900 0.656059 -0.228017 -1.274505 0.491158 5.270846 -24.284055 -13.208345 6.190214 -8.941170 -22.374817 9.552336 4.432762 -6.838423 61.941148 45.397074 29.498358 40.063001 35.612347 47.091187 -5.088660 44.227964 12.285574 -8.680114 -3.147659 -5.675320 -49.568660 26.951209 -19.843144 -30.067951 11.000393 -32.097846 -36.268578 30.957986 -3.845656 -1.056444 -6.054158 -3.844746 2.367074 -4.108982 -11.146273 -1.057748 4.574621 1.732960 -0.032639 0.025375 -0.012535 -0.870668 -6.757002 0.648124 0.781940 -1.841833 -1.437990 -1.013310 3.297311 -0.259744 0.036591 -0.005125 0.016415 
10.027309 6.929028 83.114563 -5.156636 -0.996734 -103.435080 -0.737506 -3.779134 1.571164 -0.306069 -1.679074 0.684948 -0.306069 -1.679075 0.684947 -0.227653 -1.259652 0.512833 5.229038 -24.263093 -12.941182 6.175845 -8.893034 -21.905790 9.567551 4.479778 -6.825247 61.798944 44.949967 29.803380 40.133372 35.345174 47.450181 -6.554930 44.307960 12.891934 -8.633515 -3.003941 -5.807607 -49.519196 27.627821 -20.035691 -30.155985 11.656116 -32.474199 -36.164588 31.707565 -4.529358 -1.022273 -6.029536 -3.799297 2.297935 -3.946444 -11.159102 -0.982825 4.486639 1.796473 -0.062575 0.020585 -0.013791 -0.853797 -6.730697 0.708066 0.754105 -1.734304 -1.443293 -1.017712 3.251389 -0.223762 0.046561 0.002391 0.017451 
10.050000 6.927184 83.114700 -5.053543 -0.988799 -103.548653 -0.739332 -3.719923 1.624283 -0.306090 -1.653367 0.711772 -0.306090 -1.653367 0.711773 -0.227626 -1.240384 0.532965 5.156366 -24.257338 -12.603344 6.125603 -8.873491 -21.317688 9.595234 4.490464 -6.793710 61.615082 44.403692 29.996097 40.242737 34.980332 47.766812 -8.193845 44.525727 13.388530 -8.616558 -2.899220 -5.950655 -49.488286 28.303006 -20.181005 -30.322085 12.478614 -32.996203 -35.832757 32.433744 -5.149446 -0.993563 -6.002415 -3.736934 2.234334 -3.788172 -11.184261 -0.903325 4.401645 1.882227 -0.090200 0.015650 -0.015281 -0.835641 -6.705691 0.780227 0.721769 -1.630196 -1.428993 -1.025853 3.211681 -0.206660 0.058539 0.007490 0.018019 
10.071743 6.923977 83.113510 -4.957110 -0.985821 -103.675107 -0.741841 -3.656042 1.666769 -0.306705 -1.625756 0.733267 -0.306705 -1.625756 0.733267 -0.228063 -1.219688 0.549096 5.048528 -24.261004 -12.179510 6.034678 -8.871769 -20.584131 9.629540 4.479591 -6.746288 61.350576 43.734733 30.003180 40.287434 34.388500 47.933680 -10.034709 44.750436 13.669329 -8.601885 -2.856296 -6.080339 -49.530059 29.007725 -20.318121 -30.519396 13.409429 -33.618782 -35.209581 33.252933 -5.730288 -0.959969 -5.979881 -3.663772 2.171864 -3.632532 -11.200329 -0.828300 4.318602 1.946236 -0.112660 0.009936 -0.017064 -0.815309 -6.683844 0.873314 0.691703 -1.537975 -1.389309 -1.041327 3.182688 -0.219614 0.070987 0.008711 0.019604 
10.090703 6.919535 83.111153 -4.870174 -0.988778 -103.823882 -0.742817 -3.596961 1.702417 -0.306799 -1.600191 0.751416 -0.306799 -1.600191 0.751416 -0.228117 -1.200523 0.562721 4.910854 -24.269812 -11.673184 5.911231 -8.879712 -19.710113 9.675489 4.473425 -6.670802 60.928019 42.945815 29.732367 40.158784 33.467787 47.871000 -12.039356 44.983974 13.619898 -8.600532 -2.858276 -6.209830 -49.688124 29.767115 -20.432028 -30.696352 14.415401 -34.371008 -34.319255 34.002177 -6.361729 -0.928231 -5.948737 -3.566874 2.113920 -3.507210 -11.193712 -0.759940 4.246707 1.989212 -0.127235 0.004702 -0.019673 -0.791686 -6.664704 0.999338 0.659711 -1.465293 -1.362753 -1.055065 3.168830 -0.228150 0.080180 0.007021 0.021834 
10.100540 6.913359 83.108032 -4.794879 -0.993046 -104.002437 -0.744086 -3.546056 1.730200 -0.308948 -1.579033 0.766003 -0.308948 -1.579033 0.766002 -0.229717 -1.184664 0.573667 4.743394 -24.282448 -11.080302 5.756238 -8.894917 -18.688338 9.742682 4.431895 -6.545973 60.346941 42.094657 29.213757 39.973508 32.366665 47.612928 -13.510556 45.116589 13.177951 -8.622843 -2.837065 -6.308314 -49.997050 30.561555 -20.531388 -30.822410 15.483393 -35.184183 -33.297275 34.744001 -7.087079 -0.898913 -5.899599 -3.418223 2.057843 -3.421245 -11.180898 -0.706747 4.185218 2.023743 -0.130315 0.000133 -0.020755 -0.775515 -6.645133 1.141286 0.636890 -1.411722 -1.354360 -1.066758 3.165427 -0.203054 0.082208 0.003798 0.023465 
10.101165 6.906925 83.104797 -4.736589 -1.004941 -104.215416 -0.747460 -3.513931 1.754321 -0.312516 -1.566037 0.779320 -0.312516 -1.566037 0.779319 -0.232375 -1.174929 0.583652 4.536605 -24.295594 -10.384358 5.556381 -8.911898 -17.491595 9.821978 4.362275 -6.419495 59.737449 41.176700 28.591877 39.802077 31.286494 47.169840 -13.376962 44.849549 12.308183 -8.663010 -2.797193 -6.378531 -50.433471 31.376666 -20.650706 -30.963942 16.705898 -36.060161 -32.320411 35.704206 -7.832368 -0.866836 -5.840804 -3.245891 2.003673 -3.371382 -11.148353 -0.669273 4.132825 2.030126 -0.124939 -0.004803 -0.021636 -0.762726 -6.627792 1.291696 0.623574 -1.387789 -1.342715 -1.077430 3.178667 -0.156700 0.078714 -0.000415 0.024337 
10.094288 6.897845 83.101761 -4.697603 -1.027694 -104.473160 -0.755000 -3.498390 1.780993 -0.318192 -1.559885 0.793581 -0.318192 -1.559885 0.793581 -0.236604 -1.170329 0.594336 4.288549 -24.311413 -9.571965 5.311825 -8.934712 -16.096405 9.903090 4.313547 -6.349404 59.114024 40.155201 27.883006 39.628279 30.213099 46.546609 -11.954707 43.942408 10.566118 -8.712193 -2.818650 -6.471665 -51.003389 32.304992 -20.827704 -31.216908 18.163531 -36.985980 -31.441635 36.798505 -8.584909 -0.839309 -5.775915 -3.070856 1.961395 -3.357563 -11.080723 -0.649214 4.086413 2.058462 -0.113047 -0.007701 -0.022111 -0.750596 -6.620818 1.454037 0.616940 -1.388936 -1.287923 -1.087882 3.209887 -0.118891 0.070871 -0.006454 0.025037 
10.079829 6.891138 83.098549 -4.672476 -1.059891 -104.782622 -0.759925 -3.490564 1.820929 -0.322455 -1.557244 0.813178 -0.322455 -1.557244 0.813178 -0.239754 -1.168364 0.609024 3.999969 -24.335146 -8.646923 5.023572 -8.973575 -14.509412 9.975042 4.283264 -6.325814 58.464275 39.095928 27.089012 39.292873 29.089127 45.769514 -9.980091 42.023193 7.426377 -8.757464 -2.896073 -6.568975 -51.733267 33.303343 -21.071397 -31.648884 19.806053 -37.950321 -30.473213 37.992295 -9.511990 -0.822159 -5.696029 -2.882886 1.936905 -3.386128 -10.959222 -0.645897 4.049917 2.083878 -0.097815 -0.009994 -0.023567 -0.745546 -6.625124 1.636107 0.620228 -1.400962 -1.185172 -1.092923 3.253405 -0.091241 0.056558 -0.015394 0.025110 
